<svg width="64" height="64" viewBox="0 0 64 64" fill="none" xmlns="http://www.w3.org/2000/svg">
<path d="M48.0149 34.6751C47.3068 34.6751 46.6279 34.9565 46.1272 35.4574C45.6263 35.958 45.3449 36.637 45.3449 37.3451L45.358 37.6083C45.4186 38.2197 45.6888 38.7946 46.1272 39.2327C46.6279 39.7336 47.3068 40.0151 48.0149 40.0151L56.0249 40.0151V34.6751H48.0149ZM13.3049 10.6451C12.5968 10.6451 11.9179 10.9266 11.4172 11.4273C10.9164 11.928 10.6349 12.6069 10.6349 13.3151L10.648 13.5784C10.7085 14.1898 10.9789 14.7646 11.4172 15.2028C11.9179 15.7036 12.5968 15.9851 13.3049 15.9851L48.0149 15.9851V10.6451L13.3049 10.6451ZM53.3549 15.9851C54.7711 15.9851 56.1291 16.548 57.1306 17.5495C58.1318 18.5509 58.6949 19.9088 58.6949 21.3251V30.0546C59.0949 30.2858 59.4682 30.5673 59.8006 30.8994C60.8018 31.9009 61.3649 33.2589 61.3649 34.6751V40.0151C61.3649 41.4312 60.8018 42.7892 59.8006 43.7907C58.7991 44.792 57.4411 45.3551 56.0249 45.3551L48.0149 45.3551C45.8904 45.3551 43.8537 44.5105 42.3516 43.0084C41.0374 41.6942 40.2263 39.971 40.0439 38.1378L40.0049 37.3451C40.0049 35.2205 40.8494 33.1839 42.3516 31.6817C43.8537 30.1796 45.8904 29.3351 48.0149 29.3351H53.3549V21.3251L13.3049 21.3251C11.1805 21.3251 9.14378 20.4805 7.64161 18.9784C6.32744 17.6642 5.51629 15.941 5.33404 14.1077L5.29492 13.3151C5.29492 11.1907 6.13944 9.15391 7.64161 7.65174C9.14378 6.14957 11.1805 5.30505 13.3049 5.30505L48.0149 5.30505L48.5417 5.33114C49.7646 5.4523 50.914 5.99298 51.7906 6.86951C52.7918 7.87095 53.3549 9.22881 53.3549 10.6451V15.9851Z" fill="#3DB8F5"/>
<path d="M5.2998 50.69L5.2998 13.31C5.2998 11.8354 6.49522 10.64 7.9698 10.64C9.44439 10.64 10.6398 11.8354 10.6398 13.31L10.6398 50.69C10.6398 51.3981 10.9213 52.0771 11.422 52.5777C11.9228 53.0786 12.6017 53.36 13.3098 53.36L53.3598 53.36V42.68C53.3598 41.2054 54.5552 40.01 56.0298 40.01C57.5044 40.01 58.6998 41.2054 58.6998 42.68V53.36C58.6998 54.7762 58.1367 56.1341 57.1355 57.1357C56.1339 58.1369 54.776 58.7 53.3598 58.7L13.3098 58.7C11.1854 58.7 9.14866 57.8555 7.64649 56.3534C6.14433 54.8512 5.2998 52.8143 5.2998 50.69Z" fill="#3DB8F5"/>
</svg>
