<svg width="16" height="16" viewBox="0 0 16 16" fill="none" xmlns="http://www.w3.org/2000/svg">
<path d="M4.66016 4.01L4.66016 1.33C4.66016 0.959976 4.96013 0.660004 5.33016 0.660004C5.70018 0.660004 6.00016 0.959976 6.00016 1.33L6.00016 4.01C6.00016 4.38003 5.70018 4.68 5.33016 4.68C4.96013 4.68 4.66016 4.38003 4.66016 4.01Z" fill="#31383F"/>
<path d="M10 4.01V1.33C10 0.959976 10.3 0.660004 10.67 0.660004C11.04 0.660004 11.34 0.959976 11.34 1.33V4.01C11.34 4.38003 11.04 4.68 10.67 4.68C10.3 4.68 10 4.38003 10 4.01Z" fill="#31383F"/>
<path d="M13.36 3.98C13.36 3.60997 13.0601 3.31 12.69 3.31L3.31005 3.31C2.94002 3.31 2.64005 3.60997 2.64005 3.98L2.64005 13.36C2.64005 13.73 2.94002 14.03 3.31005 14.03L12.69 14.03C13.0601 14.03 13.36 13.73 13.36 13.36L13.36 3.98ZM14.7 13.36C14.7 14.4701 13.8002 15.37 12.69 15.37L3.31005 15.37C2.19996 15.37 1.30005 14.4701 1.30005 13.36L1.30005 3.98C1.30005 2.86991 2.19996 1.97 3.31005 1.97L12.69 1.97C13.8002 1.97 14.7 2.86991 14.7 3.98L14.7 13.36Z" fill="#31383F"/>
<path d="M14.03 6C14.4001 6 14.7 6.29997 14.7 6.67C14.7 7.04004 14.4001 7.34 14.03 7.34L1.97005 7.34C1.60002 7.34 1.30005 7.04004 1.30005 6.67C1.30005 6.29997 1.60002 6 1.97005 6L14.03 6Z" fill="#31383F"/>
</svg>
