<svg width="54" height="54" viewBox="0 0 54 54" fill="none" xmlns="http://www.w3.org/2000/svg">
<path d="M48.06 8.01C48.06 7.30186 47.7786 6.62296 47.2777 6.12223C46.7771 5.6215 46.0981 5.34 45.39 5.34L8.01 5.34C7.30186 5.34 6.62296 5.6215 6.12223 6.12223C5.6215 6.62296 5.34 7.30186 5.34 8.01L5.34 44.2843L11.4622 38.1623L11.6578 37.985C12.1329 37.5955 12.7303 37.38 13.35 37.38L45.39 37.38C46.0981 37.38 46.7771 37.0986 47.2777 36.5977C47.7786 36.0971 48.06 35.4181 48.06 34.71L48.06 8.01ZM53.4 34.71C53.4 36.8345 52.5555 38.8712 51.0533 40.3733C49.5512 41.8755 47.5145 42.72 45.39 42.72L14.4555 42.72L4.55777 52.6177C3.79415 53.3813 2.6456 53.6099 1.6479 53.1965C0.650385 52.7832 0 51.8097 0 50.73L0 8.01C0 5.88561 0.844521 3.84886 2.34669 2.34669C3.84886 0.844521 5.88561 0 8.01 0L45.39 0C47.5143 0 49.5512 0.844521 51.0533 2.34669C52.5555 3.84886 53.4 5.88561 53.4 8.01L53.4 34.71Z" fill="#3DB8F5"/>
</svg>
