<svg width="48" height="48" viewBox="0 0 48 48" fill="none" xmlns="http://www.w3.org/2000/svg">
<path d="M22 42L22 26C22 24.8954 22.8954 24 24 24C25.1046 24 26 24.8954 26 26L26 42C26 43.1046 25.1046 44 24 44C22.8954 44 22 43.1046 22 42Z" fill="#575E6B"/>
<path d="M16.7396 4.05618C19.1598 3.86424 21.5931 4.22558 23.8529 5.11282C26.1125 6.0001 28.1415 7.39018 29.7845 9.17728C31.0845 10.5914 32.1113 12.2269 32.8295 13.9995L34.9995 13.9995L35.4409 14.0093C37.6451 14.0975 39.7767 14.8455 41.5541 16.1636C43.4495 17.5692 44.8415 19.5481 45.5267 21.8062C46.2119 24.0648 46.1521 26.4844 45.3569 28.7066C44.5615 30.9286 43.0733 32.837 41.1107 34.148L40.9349 34.2516C40.0395 34.7266 38.9125 34.4562 38.3373 33.5952C37.7237 32.6768 37.9715 31.4354 38.8901 30.8218L39.3431 30.4898C40.3679 29.6794 41.1485 28.596 41.5913 27.359C42.0973 25.945 42.1365 24.4054 41.7005 22.9682C41.2647 21.531 40.3777 20.2712 39.1713 19.3765C38.1159 18.5939 36.8641 18.1276 35.5619 18.023L34.9995 17.9995H31.4193C30.5355 17.9992 29.7563 17.4188 29.5033 16.5718C28.9825 14.8274 28.0713 13.2246 26.8393 11.8843C25.6069 10.5439 24.0849 9.50092 22.3901 8.83548C20.6953 8.17022 18.871 7.89858 17.056 8.04252C15.241 8.18654 13.4821 8.74136 11.9134 9.66556C10.3446 10.5898 9.007 11.8605 8.00134 13.3785C6.99594 14.8962 6.34816 16.6226 6.10876 18.4273C5.86934 20.2324 6.04528 22.0688 6.62048 23.7964C7.19568 25.5238 8.15554 27.0988 9.42906 28.4C10.2014 29.1894 10.189 30.4556 9.39976 31.228C8.6105 32.0006 7.3443 31.9858 6.57164 31.1968L5.95446 30.5288C4.56114 28.9334 3.49466 27.0756 2.8236 25.06C2.05668 22.7566 1.82474 20.3086 2.1439 17.9019C2.4631 15.4954 3.32664 13.1933 4.66734 11.1695C6.00824 9.14554 7.79238 7.45262 9.88414 6.22026C11.9756 4.98812 14.3198 4.24822 16.7396 4.05618Z" fill="#575E6B"/>
<path d="M22.7383 24.4492C23.5239 23.8086 24.6819 23.8538 25.4141 24.586L33.4141 32.586L33.5509 32.7384C34.1915 33.5238 34.1463 34.6818 33.4141 35.414C32.6819 36.1464 31.5239 36.1916 30.7383 35.5508L30.5861 35.414L24.0001 28.8282L17.4142 35.414C16.6331 36.1952 15.3671 36.1952 14.586 35.414C13.805 34.633 13.805 33.367 14.586 32.586L22.5861 24.586L22.7383 24.4492Z" fill="#575E6B"/>
</svg>
