<svg width="40" height="40" viewBox="0 0 40 40" fill="none" xmlns="http://www.w3.org/2000/svg">
<path d="M20.8349 15.8501C20.8349 15.4099 21.0099 14.9878 21.3212 14.6764C21.6325 14.3651 22.0547 14.1901 22.4949 14.1901H24.1549V12.5301H22.4949C21.6144 12.5301 20.7702 12.8802 20.1476 13.5028C19.5249 14.1254 19.1749 14.9696 19.1749 15.8501V18.3401C19.1749 18.7985 18.8033 19.1701 18.3449 19.1701H16.6849V20.8301H18.3449C18.8033 20.8301 19.1749 21.2017 19.1749 21.6601V27.4701H20.8349V21.6601C20.8349 21.2017 21.2065 20.8301 21.6649 20.8301H23.5073L23.9223 19.1701H21.6649C21.2065 19.1701 20.8349 18.7985 20.8349 18.3401V15.8501ZM22.4949 17.5101H24.9849C25.2405 17.5101 25.4817 17.628 25.639 17.8295C25.7962 18.0309 25.8517 18.2933 25.7898 18.5411L24.9598 21.8611C24.8674 22.2307 24.5358 22.4901 24.1549 22.4901L22.4949 22.4901V28.3001C22.4949 28.7585 22.1233 29.1301 21.6649 29.1301L18.3449 29.1301C17.8865 29.1301 17.5149 28.7585 17.5149 28.3001V22.4901H15.8549C15.3965 22.4901 15.0249 22.1185 15.0249 21.6601L15.0249 18.3401L15.029 18.255C15.0716 17.8366 15.4252 17.5101 15.8549 17.5101H17.5149V15.8501C17.5149 14.5293 18.04 13.263 18.9739 12.3291C19.9078 11.3952 21.1741 10.8701 22.4949 10.8701L24.9849 10.8701L25.07 10.8742C25.4885 10.9168 25.8149 11.2704 25.8149 11.7001V15.0201C25.8149 15.4785 25.4433 15.8501 24.9849 15.8501H22.4949V17.5101Z" fill="#31383F"/>
</svg>
