<svg width="16" height="16" viewBox="0 0 16 16" fill="none" xmlns="http://www.w3.org/2000/svg">
<path d="M10.0201 14C10.3901 14 10.6901 14.3 10.6901 14.67C10.6901 15.04 10.3901 15.34 10.0201 15.34L1.98006 15.34C1.61003 15.34 1.31006 15.04 1.31006 14.67C1.31006 14.3 1.61003 14 1.98006 14L10.0201 14Z" fill="#31383F"/>
<path d="M9.34998 5.33C9.72002 5.33 10.02 5.62997 10.02 6C10.02 6.37003 9.72002 6.67 9.34998 6.67L2.64998 6.67C2.27995 6.67 1.97998 6.37003 1.97998 6C1.97998 5.62997 2.27995 5.33 2.64998 5.33L9.34998 5.33Z" fill="#31383F"/>
<path d="M8.67998 14.7L8.67998 2.64C8.67998 2.46231 8.60936 2.29195 8.48367 2.16629C8.37372 2.05632 8.22947 1.98848 8.07604 1.97327L8.00998 1.97L3.98998 1.97C3.81228 1.97 3.64192 2.04064 3.51627 2.16629C3.39062 2.29195 3.31998 2.46231 3.31998 2.64L3.31998 14.7C3.31998 15.07 3.02001 15.37 2.64998 15.37C2.27995 15.37 1.97998 15.07 1.97998 14.7L1.97998 2.64C1.97998 2.10692 2.1919 1.59582 2.56885 1.21887C2.9458 0.841926 3.45689 0.630005 3.98998 0.630005L8.00998 0.630005C8.54303 0.630005 9.05418 0.841926 9.43112 1.21887C9.80806 1.59582 10.02 2.10692 10.02 2.64L10.02 14.7C10.02 15.07 9.72002 15.37 9.34998 15.37C8.97994 15.37 8.67998 15.07 8.67998 14.7Z" fill="#31383F"/>
<path d="M11.3301 11.35V10.01C11.3301 9.83232 11.2595 9.66194 11.1338 9.53631C11.0082 9.41062 10.8378 9.34 10.6601 9.34H9.32015C8.95011 9.34 8.65015 9.04004 8.65015 8.67C8.65015 8.29996 8.95011 8 9.32015 8H10.6601C11.1933 8 11.7043 8.21192 12.0813 8.58887C12.4582 8.96581 12.6701 9.47695 12.6701 10.01V11.35C12.6701 11.5277 12.7408 11.6981 12.8665 11.8237C12.9921 11.9494 13.1625 12.02 13.3401 12.02C13.5178 12.02 13.6882 11.9494 13.8138 11.8237C13.9395 11.6981 14.0101 11.5277 14.0101 11.35L14.0101 6.54551L14.0069 6.47943C14.0004 6.41371 13.9846 6.34892 13.9591 6.28772C13.9252 6.20613 13.8752 6.13213 13.8126 6.06983L11.5265 3.78372L11.4806 3.73269C11.266 3.46953 11.2812 3.08159 11.5265 2.8363C11.7717 2.591 12.1597 2.57586 12.4228 2.7905L12.4738 2.8363L14.7573 5.11979L14.8909 5.26636C15.0169 5.41924 15.1201 5.59042 15.1964 5.77409C15.298 6.01881 15.3503 6.28119 15.3501 6.54616L15.3501 11.35C15.3501 11.8831 15.1382 12.3942 14.7613 12.7711C14.3843 13.1481 13.8733 13.36 13.3401 13.36C12.807 13.36 12.296 13.1481 11.919 12.7711C11.5421 12.3942 11.3301 11.8831 11.3301 11.35Z" fill="#31383F"/>
</svg>
