<svg width="16" height="16" viewBox="0 0 16 16" fill="none" xmlns="http://www.w3.org/2000/svg">
<path d="M10.2471 6.14049C10.5103 5.92586 10.8982 5.94099 11.1435 6.18629C11.3888 6.43159 11.4039 6.81952 11.1893 7.0827L11.1435 7.13368L8.46348 9.81368C8.20185 10.0754 7.77774 10.0754 7.5161 9.81368C7.2544 9.55205 7.2544 9.12794 7.5161 8.8663L10.1961 6.18629L10.2471 6.14049Z" fill="#31383F"/>
<path d="M14.0299 9.34466C14.0299 8.28626 13.751 7.24629 13.2218 6.32967C12.6926 5.41306 11.9315 4.65196 11.0149 4.12273C10.0982 3.59346 9.05842 3.31467 7.99988 3.31467C6.94135 3.31467 5.90158 3.59346 4.98488 4.12273C4.06827 4.65196 3.30716 5.41306 2.77794 6.32967C2.24874 7.24629 1.96988 8.28626 1.96988 9.34466C1.96992 10.3371 2.21491 11.3135 2.68176 12.1869L2.77794 12.3597L2.80935 12.4212C2.94842 12.7308 2.83292 13.1016 2.53258 13.275C2.23221 13.4485 1.85318 13.3633 1.65451 13.0879L1.61721 13.0297L1.49944 12.8183C0.928977 11.7508 0.62993 10.5576 0.629883 9.34466C0.629883 8.05103 0.970424 6.78004 1.61721 5.65967C2.26405 4.53931 3.19453 3.60886 4.31488 2.962C5.43526 2.31516 6.70618 1.97467 7.99988 1.97467C9.29359 1.97467 10.5645 2.31516 11.6849 2.962C12.8053 3.60886 13.7357 4.53931 14.3826 5.65967C15.0293 6.78004 15.3699 8.05103 15.3699 9.34466C15.3698 10.6383 15.0293 11.9094 14.3826 13.0297C14.1975 13.3501 13.7876 13.46 13.4672 13.275C13.1468 13.09 13.0368 12.6801 13.2218 12.3597C13.751 11.443 14.0298 10.4031 14.0299 9.34466Z" fill="#31383F"/>
</svg>
