<svg width="40" height="40" viewBox="0 0 40 40" fill="none" xmlns="http://www.w3.org/2000/svg">
<g clip-path="url(#clip0_4_33)">
<path d="M27.4701 15.8501C27.4701 14.0165 25.9837 12.5301 24.1501 12.5301L15.8501 12.5301C14.0165 12.5301 12.5301 14.0165 12.5301 15.8501L12.5301 24.1501C12.5301 25.9837 14.0165 27.4701 15.8501 27.4701L24.1501 27.4701C25.9837 27.4701 27.4701 25.9837 27.4701 24.1501L27.4701 15.8501ZM29.1301 24.1501C29.1301 26.9005 26.9005 29.1301 24.1501 29.1301L15.8501 29.1301C13.0997 29.1301 10.8701 26.9005 10.8701 24.1501L10.8701 15.8501C10.8701 13.0997 13.0997 10.8701 15.8501 10.8701L24.1501 10.8701C26.9005 10.8701 29.1301 13.0997 29.1301 15.8501L29.1301 24.1501Z" fill="#31383F"/>
<path d="M18.1315 16.2735C18.9062 15.8715 19.7881 15.724 20.6514 15.852L20.816 15.8804C21.6336 16.0354 22.3867 16.433 22.9769 17.0232C23.6066 17.6528 24.0176 18.468 24.1481 19.3487L24.1685 19.5108C24.2563 20.3219 24.1035 21.1424 23.7267 21.8687C23.3247 22.6434 22.6883 23.2716 21.9086 23.6641C21.129 24.0564 20.2455 24.1933 19.3838 24.0548C18.522 23.9161 17.7258 23.5088 17.1086 22.8916C16.4913 22.2743 16.0841 21.4782 15.9454 20.6164C15.8068 19.7547 15.9437 18.8712 16.3361 18.0915C16.7286 17.3119 17.3567 16.6755 18.1315 16.2735ZM20.4083 17.4942C19.8902 17.4173 19.3607 17.5058 18.8958 17.7471C18.4309 17.9883 18.0541 18.3703 17.8186 18.838C17.5832 19.3058 17.5012 19.836 17.5844 20.353C17.6676 20.8701 17.9119 21.3476 18.2822 21.7179C18.6525 22.0882 19.1301 22.3326 19.6472 22.4158C20.1642 22.499 20.6943 22.417 21.1621 22.1815C21.6299 21.9461 22.0119 21.5692 22.2531 21.1044C22.4642 20.6977 22.5582 20.2417 22.5271 19.7872L22.506 19.5919C22.4276 19.0635 22.181 18.5746 21.8032 18.1969C21.4728 17.8664 21.0572 17.6363 20.6045 17.5315L20.4083 17.4942Z" fill="#31383F"/>
<path d="M24.5981 14.5901L24.6832 14.5941C25.1017 14.6367 25.4281 14.9903 25.4281 15.4201C25.4281 15.8498 25.1017 16.2035 24.6832 16.246L24.5981 16.2501H24.59C24.1316 16.2501 23.76 15.8785 23.76 15.4201C23.76 14.9617 24.1316 14.5901 24.59 14.5901H24.5981Z" fill="#31383F"/>
</g>
<defs>
<clipPath id="clip0_4_33">
<rect width="20" height="20" fill="white" transform="translate(10 10)"/>
</clipPath>
</defs>
</svg>
