<svg width="40" height="40" viewBox="0 0 40 40" fill="none" xmlns="http://www.w3.org/2000/svg">
<path d="M27.48 21.665C27.48 20.5643 27.0424 19.5091 26.2642 18.7308C25.4859 17.9525 24.4307 17.515 23.33 17.515C22.2294 17.515 21.1741 17.9525 20.3958 18.7308C19.6176 19.5091 19.18 20.5643 19.18 21.665L19.18 26.645H20.84L20.84 21.665C20.84 21.0045 21.1025 20.3714 21.5695 19.9045C22.0365 19.4375 22.6696 19.175 23.33 19.175C23.9905 19.175 24.6236 19.4375 25.0905 19.9045C25.5575 20.3714 25.82 21.0045 25.82 21.665L25.82 26.645L27.48 26.645L27.48 21.665ZM29.14 27.475C29.14 27.9334 28.7684 28.305 28.31 28.305L24.99 28.305C24.5316 28.305 24.16 27.9334 24.16 27.475L24.16 21.665C24.16 21.4449 24.0725 21.2338 23.9168 21.0782C23.7612 20.9225 23.5501 20.835 23.33 20.835C23.1099 20.835 22.8988 20.9225 22.7432 21.0782C22.5875 21.2338 22.5 21.4449 22.5 21.665L22.5 27.475C22.5 27.9334 22.1284 28.305 21.67 28.305H18.35C17.8916 28.305 17.52 27.9334 17.52 27.475L17.52 21.665C17.52 20.1241 18.1318 18.6459 19.2214 17.5563C20.311 16.4667 21.7891 15.855 23.33 15.855C24.8709 15.855 26.3491 16.4667 27.4387 17.5563C28.5283 18.6459 29.14 20.1241 29.14 21.665L29.14 27.475Z" fill="#31383F"/>
<path d="M14.9901 16.6902L15.0752 16.6942C15.4936 16.7368 15.8201 17.0905 15.8201 17.5202L15.8201 27.4802C15.8201 27.9386 15.4485 28.3102 14.9901 28.3102H11.6701C11.2117 28.3102 10.8401 27.9386 10.8401 27.4802L10.8401 17.5202L10.8441 17.4351C10.8867 17.0166 11.2404 16.6902 11.6701 16.6902L14.9901 16.6902ZM12.5001 26.6502H14.1601L14.1601 18.3502H12.5001L12.5001 26.6502Z" fill="#31383F"/>
<path d="M14.1601 13.3301C14.1601 12.8717 13.7885 12.5001 13.3301 12.5001C12.8717 12.5001 12.5001 12.8717 12.5001 13.3301C12.5001 13.7885 12.8717 14.1601 13.3301 14.1601C13.7885 14.1601 14.1601 13.7885 14.1601 13.3301ZM15.8201 13.3301C15.8201 14.7053 14.7053 15.8201 13.3301 15.8201C11.9549 15.8201 10.8401 14.7053 10.8401 13.3301C10.8401 11.9549 11.9549 10.8401 13.3301 10.8401C14.7053 10.8401 15.8201 11.9549 15.8201 13.3301Z" fill="#31383F"/>
</svg>
