<svg width="22" height="14" viewBox="0 0 22 14" fill="none" xmlns="http://www.w3.org/2000/svg">
<path d="M0 6C0 5.4814 0.0856999 4.9662 0.25391 4.4756L0.2998 4.3652L1.69922 1.46484L1.74219 1.38574L1.91309 1.12988C2.35044 0.53872 3.06271 0 4 0L11 0C11.8763 0 12.6091 0.33124 13.1865 0.74023L13.4248 0.91895L13.5068 0.99316C13.967 1.45328 14.525 2.03604 14.9639 2.5C15.184 2.73276 15.3758 2.93765 15.5127 3.08398C15.515 3.08645 15.5173 3.08936 15.5195 3.0918C15.5658 3.10227 15.6166 3.11437 15.6719 3.12695C15.9551 3.19146 16.3516 3.28267 16.8047 3.38965C17.7077 3.60285 18.8481 3.88132 19.7676 4.1367C20.9679 4.4489 22 5.6157 22 7L22 10C22 10.5272 21.8194 11.0439 21.4316 11.4316C21.0439 11.8194 20.5272 12 20 12L18 12C17.4477 12 17 11.5523 17 11C17 10.4477 17.4477 10 18 10L20 10L20 7C20 6.6444 19.7298 6.2734 19.4014 6.1211L19.2578 6.0703C19.2494 6.0682 19.2407 6.0658 19.2324 6.0635C18.3519 5.8189 17.2418 5.5477 16.3447 5.3359C15.898 5.2305 15.5067 5.1398 15.2275 5.0762C15.0882 5.0444 14.9768 5.0191 14.9004 5.002C14.8621 4.9934 14.8323 4.9869 14.8125 4.9824C14.8027 4.9802 14.795 4.9786 14.79 4.9775C14.788 4.9771 14.7863 4.9768 14.7852 4.9766H14.7832C14.6347 4.9436 14.4961 4.877 14.3779 4.7832L14.2676 4.6807H14.2666V4.6797C14.266 4.6791 14.2649 4.678 14.2637 4.6768C14.2613 4.6742 14.2577 4.6702 14.2529 4.665C14.2434 4.6548 14.2292 4.6398 14.2109 4.6201C14.174 4.5805 14.1202 4.5223 14.0527 4.4502C13.9178 4.3059 13.7279 4.1046 13.5107 3.875C13.0878 3.42787 12.5652 2.88105 12.1328 2.44727C11.7562 2.15585 11.384 2 11 2L4 2C3.87563 2 3.66326 2.08982 3.47656 2.38379L2.13184 5.1689C2.04497 5.4374 2 5.7177 2 6L2 10L4 10C4.55228 10 5 10.4477 5 11C5 11.5523 4.55228 12 4 12L2 12C1.47275 12 0.95614 11.8194 0.56836 11.4316C0.18058 11.0439 0 10.5272 0 10L0 6Z" fill="white"/>
<path d="M7 11C7 10.4477 6.55228 10 6 10C5.44772 10 5 10.4477 5 11C5 11.5523 5.44772 12 6 12C6.55228 12 7 11.5523 7 11ZM9 11C9 12.6569 7.65685 14 6 14C4.34315 14 3 12.6569 3 11C3 9.3431 4.34315 8 6 8C7.65685 8 9 9.3431 9 11Z" fill="white"/>
<path d="M14 10C14.5523 10 15 10.4477 15 11C15 11.5523 14.5523 12 14 12L8 12C7.44772 12 7 11.5523 7 11C7 10.4477 7.44772 10 8 10L14 10Z" fill="white"/>
<path d="M17 11C17 10.4477 16.5523 10 16 10C15.4477 10 15 10.4477 15 11C15 11.5523 15.4477 12 16 12C16.5523 12 17 11.5523 17 11ZM19 11C19 12.6569 17.6569 14 16 14C14.3431 14 13 12.6569 13 11C13 9.3431 14.3431 8 16 8C17.6569 8 19 9.3431 19 11Z" fill="white"/>
</svg>
