<svg width="64" height="64" viewBox="0 0 64 64" fill="none" xmlns="http://www.w3.org/2000/svg">
<path d="M53.3601 13.31C53.3601 12.6019 53.0786 11.923 52.5777 11.4223C52.0771 10.9215 51.3981 10.64 50.69 10.64L13.31 10.64C12.6019 10.64 11.923 10.9215 11.4223 11.4223C10.9215 11.923 10.64 12.6019 10.64 13.31L10.64 49.5844L16.7623 43.4624L16.9578 43.2851C17.433 42.8955 18.0304 42.68 18.65 42.68L50.69 42.68C51.3981 42.68 52.0771 42.3986 52.5777 41.8977C53.0786 41.3971 53.3601 40.7181 53.3601 40.01L53.3601 13.31ZM58.7001 40.01C58.7001 42.1346 57.8555 44.1712 56.3534 45.6734C54.8512 47.1755 52.8146 48.02 50.69 48.02L19.7556 48.02L9.85782 57.9177C9.0942 58.6814 7.94564 58.9099 6.94795 58.4966C5.95043 58.0833 5.30005 57.1098 5.30005 56.03L5.30005 13.31C5.30005 11.1857 6.14457 9.14891 7.64674 7.64674C9.14891 6.14457 11.1857 5.30005 13.31 5.30005L50.69 5.30005C52.8143 5.30005 54.8512 6.14457 56.3534 7.64674C57.8555 9.14891 58.7001 11.1857 58.7001 13.31L58.7001 40.01Z" fill="#3DB8F5"/>
</svg>
