<svg width="20" height="20" viewBox="0 0 20 20" fill="none" xmlns="http://www.w3.org/2000/svg">
<g clip-path="url(#clip0_4_1068)">
<path d="M5.94144 0.873101C6.54274 0.869139 7.12512 1.08316 7.58118 1.47533C7.98196 1.82001 8.26177 2.28167 8.38196 2.79248L8.4233 3.01457L8.42413 3.02186L8.46471 3.29745C8.56747 3.93661 8.73272 4.56445 8.95915 5.17143L9.01583 5.34002C9.13361 5.73755 9.15054 6.15906 9.06364 6.56638C8.96437 7.03192 8.73372 7.45912 8.39898 7.7976L8.39574 7.80165L7.80164 8.39498C8.77762 9.92625 10.0768 11.2244 11.608 12.2005L12.2054 11.6039L12.3367 11.484C12.6516 11.2142 13.0292 11.0262 13.4366 10.9393C13.9013 10.8402 14.3849 10.8763 14.8299 11.043C15.4375 11.2698 16.0664 11.4363 16.7063 11.5391L16.9811 11.5788L16.9884 11.5796C17.5931 11.6649 18.1458 11.9696 18.5406 12.4356C18.9309 12.8962 19.139 13.4833 19.1291 14.0866L19.1299 16.5734L19.1274 16.7031C19.1129 17.0054 19.0431 17.3029 18.9216 17.5809C18.7826 17.8986 18.5788 18.1838 18.3234 18.4182C18.0679 18.6525 17.7666 18.8316 17.4383 18.9426C17.1509 19.0398 16.8482 19.083 16.5458 19.0715L16.4161 19.0634C16.4111 19.063 16.4057 19.0623 16.4008 19.0618C13.7179 18.7702 11.1407 17.8537 8.87639 16.3854C6.77114 15.0462 4.98585 13.26 3.64759 11.1541C2.17649 8.88103 1.26039 6.2931 0.974413 3.60059L0.972786 3.58763C0.941686 3.24343 0.983286 2.89629 1.09356 2.56877C1.20389 2.24119 1.38091 1.93975 1.61393 1.68446C1.84699 1.42915 2.13096 1.22514 2.44717 1.08547C2.76331 0.945853 3.10503 0.873435 3.45064 0.873101L5.94144 0.873101ZM3.36633 2.53797C3.2807 2.54696 3.19658 2.56869 3.1175 2.60362C3.01211 2.65018 2.91797 2.71873 2.84029 2.80382C2.76267 2.88885 2.70362 2.98896 2.66683 3.09805C2.63146 3.20308 2.61728 3.31427 2.62549 3.42471L2.68061 3.88023C2.96907 6.00069 3.69083 8.03906 4.801 9.86856L5.04417 10.2576L5.04822 10.2633L5.28004 10.6167C6.38168 12.2493 7.78682 13.6553 9.41946 14.7569L9.77288 14.988L9.77935 14.992L10.1668 15.2352C12.1142 16.4185 14.299 17.1614 16.5677 17.4099C16.6821 17.4199 16.7978 17.407 16.9065 17.3702C17.0159 17.3332 17.1165 17.2732 17.2015 17.1951C17.2866 17.117 17.3547 17.0221 17.401 16.9163C17.4472 16.8103 17.4703 16.6955 17.4699 16.5799V14.0866L17.4706 14.0664C17.4757 13.8629 17.4053 13.6641 17.2737 13.5087C17.1437 13.3554 16.9625 13.254 16.7639 13.2243C15.9051 13.111 15.062 12.9013 14.2504 12.5985L14.2479 12.5977C14.0996 12.542 13.9384 12.5299 13.7835 12.5628C13.6283 12.5959 13.4854 12.6733 13.3725 12.7849L12.3221 13.8354C12.0579 14.0996 11.6491 14.1546 11.3243 13.9699C9.1166 12.7145 7.28837 10.8864 6.03303 8.67867C5.84849 8.35389 5.90425 7.94584 6.1684 7.68169L7.21805 6.63042C7.32962 6.51759 7.40704 6.37546 7.44015 6.22028C7.47324 6.06509 7.46112 5.90357 7.40529 5.75502L7.40448 5.7534C7.10252 4.9442 6.89308 4.10339 6.77955 3.24719L6.76577 3.17263C6.72567 3.00255 6.63251 2.84893 6.4991 2.73411C6.3655 2.61922 6.19929 2.54966 6.02493 2.53554L5.94955 2.5331L3.45225 2.5331L3.36633 2.53797Z" fill="#575E6B"/>
</g>
<defs>
<clipPath id="clip0_4_1068">
<rect width="20" height="20" fill="white"/>
</clipPath>
</defs>
</svg>
