<svg width="64" height="64" viewBox="0 0 64 64" fill="none" xmlns="http://www.w3.org/2000/svg">
<path d="M42.5284 42.5285C43.5059 41.551 45.0518 41.4907 46.1006 42.3461L46.304 42.5285L57.8913 54.116L58.0766 54.3192C58.931 55.368 58.8685 56.9142 57.8913 57.8914C56.9141 58.8686 55.3679 58.9311 54.3191 58.0767L54.1159 57.8914L42.5284 46.3041L42.346 46.1007C41.4905 45.0519 41.5509 43.506 42.5284 42.5285Z" fill="#3DB8F5"/>
<path d="M48.0201 29.33C48.0201 19.0079 39.6523 10.64 29.33 10.64C19.0079 10.64 10.64 19.0079 10.64 29.33C10.64 39.6523 19.0079 48.0201 29.33 48.0201C39.6523 48.0201 48.0201 39.6523 48.0201 29.33ZM53.3601 29.33C53.3601 42.6016 42.6016 53.3601 29.33 53.3601C16.0587 53.3601 5.30005 42.6016 5.30005 29.33C5.30005 16.0587 16.0587 5.30005 29.33 5.30005C42.6016 5.30005 53.3601 16.0587 53.3601 29.33Z" fill="#3DB8F5"/>
</svg>
