<svg width="15" height="15" viewBox="0 0 15 15" fill="none" xmlns="http://www.w3.org/2000/svg">
<path d="M7.51328 0.00981549C7.60715 0.0229609 7.69874 0.0493455 7.78544 0.0876762L7.91173 0.154415L8.02751 0.237508C8.10047 0.298297 8.16446 0.369103 8.21792 0.44754L8.28988 0.570545L9.83798 3.70594L9.88314 3.78445C9.93285 3.86038 9.99583 3.92704 10.0696 3.98074C10.168 4.05235 10.2829 4.09915 10.4033 4.11684L13.8639 4.62326C14.0058 4.64385 14.1405 4.69411 14.261 4.76982L14.3768 4.85357L14.4789 4.95303C14.5424 5.02379 14.5956 5.10311 14.6373 5.18857L14.6909 5.32074L14.7256 5.45945C14.7503 5.59961 14.7455 5.74424 14.7112 5.88344C14.6653 6.06898 14.5687 6.23809 14.4318 6.37155L14.4312 6.37222L11.9284 8.80948C11.8413 8.89444 11.7758 8.99923 11.738 9.115C11.7004 9.23078 11.6915 9.35419 11.7119 9.47419L12.302 12.9152L12.3171 13.0578C12.322 13.2007 12.2971 13.3436 12.2431 13.4772C12.1712 13.6553 12.0505 13.8099 11.8951 13.9228C11.7396 14.0357 11.5555 14.1025 11.3638 14.1158C11.1722 14.1291 10.9805 14.0883 10.8109 13.998L7.72005 12.3727C7.63924 12.3304 7.55161 12.3032 7.46156 12.2923L7.37064 12.2871C7.24903 12.2871 7.1289 12.3157 7.02123 12.3721L7.0219 12.3727L3.92902 13.998L3.92967 13.9987C3.76016 14.0883 3.56875 14.1287 3.37745 14.1151C3.18623 14.1015 3.00253 14.0349 2.84746 13.9221C2.69236 13.8094 2.57195 13.655 2.50003 13.4772C2.44607 13.3437 2.42122 13.2007 2.4261 13.0578L2.44049 12.9158L3.03067 9.47486L3.04048 9.38461C3.04492 9.29376 3.03275 9.20264 3.0045 9.11567C2.97624 9.02877 2.93255 8.9477 2.8756 8.87682L2.8141 8.80948L0.310756 6.37283L0.311413 6.37222C0.174351 6.23916 0.0769933 6.07079 0.0307164 5.8854C-0.0157541 5.69913 -0.00954862 5.50335 0.0496908 5.32074L0.103344 5.18792C0.166003 5.05936 0.255408 4.94494 0.365716 4.85227L0.481526 4.76786C0.562288 4.71737 0.649756 4.67842 0.741285 4.65205L0.881302 4.62195L4.33926 4.11684L4.42825 4.09786C4.516 4.07402 4.59898 4.03448 4.67295 3.98074C4.77142 3.9092 4.85129 3.81505 4.90523 3.70594L6.452 0.571202L6.45267 0.570545L6.52463 0.44754C6.60476 0.330089 6.70855 0.230004 6.83015 0.154415L6.95645 0.0876762C7.08663 0.0300964 7.22793 0 7.37124 0L7.51328 0.00981549ZM10.9823 13.1481V13.1449L10.981 13.1396L10.9823 13.1481ZM11.4377 12.8137L11.441 12.8151L11.4364 12.8125L11.4377 12.8137ZM3.30286 12.8144L3.30482 12.8137L3.30678 12.8125C3.30551 12.8131 3.30412 12.8137 3.30286 12.8144ZM6.10655 4.29873C5.95644 4.60246 5.7348 4.86577 5.46072 5.06491C5.18651 5.26409 4.86766 5.39298 4.53228 5.44179L4.53294 5.44244L1.70114 5.85596L3.74909 7.84957L3.83741 7.94056C4.03646 8.15945 4.18726 8.41854 4.27907 8.70087C4.37086 8.98315 4.40092 9.2815 4.3687 9.57563L4.35104 9.70125L3.86817 12.5173L6.39834 11.1872L6.51217 11.1309C6.78158 11.0096 7.07423 10.9471 7.37064 10.9471L7.49754 10.9509C7.79247 10.9689 8.08111 11.0487 8.34355 11.1865L10.8744 12.5173L10.3909 9.70125V9.70058C10.3338 9.36639 10.3592 9.02328 10.4642 8.70087C10.569 8.3784 10.7507 8.08622 10.9935 7.84957L13.0394 5.85661L10.209 5.44244C9.87416 5.39327 9.55551 5.2639 9.28181 5.06491C9.00805 4.86581 8.78668 4.60285 8.63667 4.29938L7.37064 1.73651L6.10655 4.29873Z" fill="#EAB308"/>
</svg>
