<svg width="16" height="16" viewBox="0 0 16 16" fill="none" xmlns="http://www.w3.org/2000/svg">
<path d="M8.14219 0.638096C8.23606 0.651242 8.32765 0.677626 8.41434 0.715957L8.54064 0.782696L8.65641 0.865789C8.72938 0.926578 8.79336 0.997384 8.84683 1.07582L8.91879 1.19883L10.4669 4.33422L10.512 4.41274C10.5618 4.48866 10.6247 4.55533 10.6985 4.60903C10.7969 4.68063 10.9118 4.72743 11.0322 4.74512L14.4928 5.25154C14.6347 5.27213 14.7694 5.32239 14.8899 5.3981L15.0057 5.48185L15.1078 5.58131C15.1713 5.65207 15.2245 5.73139 15.2662 5.81685L15.3198 5.94903L15.3545 6.08774C15.3792 6.22789 15.3744 6.37252 15.3401 6.51172C15.2942 6.69726 15.1976 6.86637 15.0607 6.99983L15.0601 7.0005L12.5574 9.43776C12.4702 9.52272 12.4047 9.62751 12.3669 9.74328C12.3293 9.85906 12.3204 9.98247 12.3408 10.1025L12.9309 13.5435L12.946 13.6861C12.9509 13.8289 12.926 13.9719 12.8721 14.1055C12.8001 14.2836 12.6794 14.4382 12.524 14.5511C12.3685 14.664 12.1844 14.7308 11.9927 14.7441C11.8011 14.7574 11.6094 14.7166 11.4398 14.6263L8.34895 13.001C8.26815 12.9587 8.18051 12.9315 8.09047 12.9206L7.99955 12.9153C7.87794 12.9153 7.75781 12.9439 7.65014 13.0004L7.65081 13.001L4.55792 14.6263L4.55858 14.627C4.38906 14.7166 4.19766 14.757 4.00635 14.7434C3.81513 14.7298 3.63143 14.6632 3.47637 14.5504C3.32127 14.4376 3.20086 14.2833 3.12894 14.1055C3.07498 13.972 3.05012 13.8289 3.05501 13.6861L3.0694 13.5441L3.65957 10.1031L3.66939 10.0129C3.67383 9.92204 3.66166 9.83092 3.6334 9.74395C3.60514 9.65705 3.56145 9.57598 3.50451 9.5051L3.443 9.43776L0.939663 7.00111L0.940319 7.0005C0.803257 6.86744 0.7059 6.69907 0.659623 6.51368C0.613152 6.32741 0.619358 6.13163 0.678597 5.94903L0.732251 5.8162C0.794909 5.68764 0.884314 5.57322 0.994623 5.48055L1.11043 5.39614C1.19119 5.34565 1.27866 5.3067 1.37019 5.28033L1.51021 5.25024L4.96817 4.74512L5.05715 4.72614C5.1449 4.7023 5.22788 4.66276 5.30186 4.60903C5.40033 4.53748 5.4802 4.44333 5.53413 4.33422L7.08091 1.19948L7.08158 1.19883L7.15354 1.07582C7.23367 0.958369 7.33745 0.858285 7.45906 0.782696L7.58535 0.715957C7.71553 0.658377 7.85684 0.628281 8.00015 0.628281L8.14219 0.638096ZM11.6112 13.7763V13.7731L11.6099 13.7679L11.6112 13.7763ZM12.0666 13.442L12.0699 13.4434L12.0653 13.4407L12.0666 13.442ZM3.93176 13.4427L3.93372 13.442L3.93569 13.4407C3.93441 13.4413 3.93303 13.442 3.93176 13.4427ZM6.73546 4.92701C6.58535 5.23075 6.36371 5.49406 6.08963 5.69319C5.81542 5.89237 5.49657 6.02127 5.16118 6.07007L5.16184 6.07072L2.33005 6.48424L4.378 8.47785L4.46632 8.56884C4.66536 8.78773 4.81616 9.04682 4.90797 9.32915C4.99977 9.61143 5.02982 9.90978 4.99761 10.2039L4.97994 10.3295L4.49707 13.1456L7.02724 11.8155L7.14108 11.7592C7.41048 11.6379 7.70314 11.5753 7.99955 11.5753L8.12644 11.5792C8.42138 11.5972 8.71001 11.677 8.97245 11.8148L11.5033 13.1456L11.0198 10.3295V10.3289C10.9627 9.99467 10.9881 9.65156 11.0931 9.32915C11.1979 9.00668 11.3796 8.7145 11.6224 8.47785L13.6683 6.48489L10.8379 6.07072C10.5031 6.02155 10.1844 5.89218 9.91072 5.69319C9.63696 5.49409 9.41559 5.23113 9.26558 4.92766L7.99955 2.36479L6.73546 4.92701Z" fill="#D1D5DB"/>
</svg>
