<svg width="40" height="40" viewBox="0 0 40 40" fill="none" xmlns="http://www.w3.org/2000/svg">
<path d="M21.3075 13.023C22.7327 12.2805 24.592 12.3267 26.0687 13.4907C26.1409 13.4732 26.2244 13.4511 26.3183 13.4193C26.5491 13.3413 26.7973 13.233 27.0324 13.1178C27.2655 13.0037 27.4742 12.8885 27.6249 12.8017C27.6999 12.7585 27.7598 12.7223 27.8 12.698C27.8201 12.6858 27.8357 12.6764 27.8454 12.6704C27.85 12.6675 27.8532 12.6651 27.8551 12.6639H27.8567C28.1534 12.4766 28.5362 12.4954 28.8124 12.7117C29.0537 12.901 29.168 13.2053 29.1187 13.5012L29.0872 13.6277V13.6293L29.0864 13.6309C29.0858 13.6325 29.0848 13.6349 29.0839 13.6374C29.0822 13.6423 29.0802 13.6488 29.0774 13.6568C29.0718 13.6731 29.0641 13.6958 29.0539 13.7241C29.0334 13.7809 29.003 13.8615 28.9639 13.96C28.8863 14.1564 28.771 14.4287 28.6195 14.7373C28.3697 15.246 28.0014 15.889 27.5155 16.4573C28.586 25.1095 19.1853 31.3675 11.6069 26.739L11.2413 26.5072C10.9303 26.3011 10.7957 25.912 10.9115 25.5573C11.0273 25.2029 11.3649 24.9691 11.7374 24.9858C12.8669 25.0372 13.9846 24.8026 14.9472 24.3212C11.3274 22.324 9.73497 17.5996 11.8006 13.7987L11.8549 13.7119C11.9925 13.5197 12.2074 13.3935 12.4458 13.3691C12.7182 13.3413 12.9871 13.4502 13.164 13.6593C14.632 15.3941 16.8168 16.4843 19.0801 16.6623C19.0893 15.0083 20.0201 13.6938 21.3075 13.023ZM25.2435 14.9675C24.2724 14.0613 23.0182 14.0045 22.0751 14.4958C21.1499 14.9778 20.5214 15.9865 20.8115 17.3408C20.8631 17.5816 20.8054 17.8335 20.6534 18.0273C20.5013 18.2212 20.2707 18.3378 20.0244 18.345C17.3887 18.4225 14.7588 17.438 12.8073 15.671C11.8446 18.8088 13.646 22.378 16.9184 23.3599C17.2077 23.4467 17.4274 23.684 17.4915 23.9791C17.5475 24.2374 17.4767 24.5046 17.3059 24.7005L17.2264 24.78C16.4535 25.4562 15.5386 25.9517 14.5589 26.2633C20.5438 28.0928 26.8913 23.0098 25.8206 16.3179C25.7787 16.0552 25.8653 15.7886 26.0533 15.6005C26.2042 15.4496 26.3445 15.2783 26.4763 15.0988C26.2615 15.1517 26.0345 15.1912 25.8101 15.1912C25.5999 15.1912 25.3973 15.1109 25.2435 14.9675Z" fill="#31383F"/>
</svg>
