<svg width="20" height="20" viewBox="0 0 20 20" fill="none" xmlns="http://www.w3.org/2000/svg">
<path d="M14.98 17.49V15.83C14.98 15.1696 14.7175 14.5364 14.2505 14.0695C13.842 13.661 13.3063 13.4088 12.7364 13.3521L12.49 13.34H7.50999C6.8496 13.34 6.21645 13.6025 5.74948 14.0695C5.28251 14.5364 5.01999 15.1696 5.01999 15.83L5.01999 17.49C5.01999 17.9484 4.64838 18.32 4.18999 18.32C3.73159 18.32 3.35999 17.9484 3.35999 17.49L3.35999 15.83C3.35999 14.7293 3.79753 13.6741 4.5758 12.8958C5.35409 12.1176 6.40934 11.68 7.50999 11.68H12.49L12.6958 11.6849C13.7215 11.7358 14.6945 12.1662 15.4242 12.8958C16.2024 13.6741 16.64 14.7293 16.64 15.83V17.49C16.64 17.9484 16.2684 18.32 15.81 18.32C15.3516 18.32 14.98 17.9484 14.98 17.49Z" fill="#575E6B"/>
<path d="M12.49 5.82999C12.49 4.45481 11.3752 3.33999 9.99998 3.33999C8.62475 3.33999 7.50998 4.45481 7.50998 5.82999C7.50998 7.20518 8.62475 8.31999 9.99998 8.31999C11.3752 8.31999 12.49 7.20518 12.49 5.82999ZM14.15 5.82999C14.15 8.12197 12.2919 9.97999 9.99998 9.97999C7.708 9.97999 5.84998 8.12197 5.84998 5.82999C5.84998 3.53801 7.708 1.67999 9.99998 1.67999C12.2919 1.67999 14.15 3.53801 14.15 5.82999Z" fill="#575E6B"/>
</svg>
